<?xml version="1.0" encoding="utf-8"?>
<!-- Generator: Adobe Illustrator 21.1.0, SVG Export Plug-In . SVG Version: 6.00 Build 0)  -->
<svg version="1.1" xmlns="http://www.w3.org/2000/svg" xmlns:xlink="http://www.w3.org/1999/xlink" x="0px" y="0px"
	 viewBox="0 0 137.3 100.7" fill="white" style="enable-background:new 0 0 137.3 100.7;" xml:space="preserve">
<style type="text/css">
	.st0{clip-path:url(#SVGID_2_);}
	.st1{fill-rule:evenodd;clip-rule:evenodd;stroke:#000000;stroke-width:1.1;stroke-miterlimit:10;}
</style>
<g id="Шар_1">
	<g>
		<path d="M111.5,62.4L111.5,62.4c0-8.1-4-15.3-10-19.8c0.1-0.8,0.1-1.6,0.1-2.4c0-13.2-10.7-23.9-23.9-23.9
			c-3.7,0-7.3,0.9-10.6,2.5C65.4,13.2,61.8,8.4,57,5.2c-0.6-0.4-1.4-0.5-2.1-0.1c-0.7,0.4-1.1,1.1-1.1,1.8v23.8
			c0,1.1,0.9,2.1,2.1,2.1h2.3l-7.4,12.8l-7.4-12.8h2.3c1.1,0,2.1-0.9,2.1-2.1V3.3c0-1.1-0.8-2-1.9-2.1c-0.9-0.1-1.7-0.1-2.5-0.1
			c-13.6,0-24.6,11-24.6,24.6v0C8.4,26,0,34.5,0,44.9c0,10.6,8.6,19.1,19.1,19.1h13.3c-2.3,3.7-3.7,8-3.7,12.7
			c0,13.2,10.7,23.9,23.9,23.9h21.8c1.1,0,2.1-0.9,2.1-2.1V73.7c0-1.1-0.9-2.1-2.1-2.1h-2.3l7.4-12.8l7.4,12.8h-2.3
			c-1.1,0-2.1,0.9-2.1,2.1v24.9c0,1.1,0.9,2.1,2.1,2.1h26.6c10.6,0,19.1-8.6,19.1-19.1C130.3,71.1,121.9,62.6,111.5,62.4L111.5,62.4
			z M19.1,59.9c-8.3,0-15-6.7-15-15c0-8.3,6.7-15,15-15c0.5,0,1.1,0,1.6,0.1c0.6,0.1,1.2-0.1,1.7-0.6c0.4-0.4,0.7-1.1,0.6-1.7
			c-0.1-0.7-0.1-1.3-0.1-2c0-11.3,9.2-20.5,20.5-20.5c0.1,0,0.1,0,0.2,0v23.4h-3.9c-0.7,0-1.4,0.4-1.8,1c-0.4,0.6-0.4,1.4,0,2.1
			l11,19c0.4,0.6,1.1,1,1.8,1c0.7,0,1.4-0.4,1.8-1l11-19c0.4-0.6,0.4-1.4,0-2.1c-0.4-0.6-1.1-1-1.8-1h-3.9V11.3c3,3,5,6.8,5.7,11
			c0.1,0.7,0.6,1.3,1.2,1.5c0.6,0.3,1.4,0.2,2-0.2c3.2-2.1,7-3.3,10.9-3.3c10.9,0,19.8,8.9,19.8,19.7c-3.2-1.5-6.8-2.4-10.6-2.4
			c-11,0-20.5,7.2-23.6,17.6c-3.3-1.6-6.9-2.5-10.6-2.5c-6.6,0-12.6,2.7-17,7.1H19.1z M111.2,96.5H86.6V75.8h3.9
			c0.7,0,1.4-0.4,1.8-1c0.4-0.6,0.4-1.4,0-2.1l-11-19c-0.4-0.6-1.1-1-1.8-1c-0.7,0-1.4,0.4-1.8,1l-11,19c-0.4,0.6-0.4,1.4,0,2.1
			c0.4,0.6,1.1,1,1.8,1h3.9v20.8H52.6c-10.9,0-19.8-8.9-19.8-19.8c0-10.9,8.9-19.8,19.8-19.8c3.9,0,7.6,1.1,10.9,3.3
			c0.6,0.4,1.3,0.4,2,0.2c0.6-0.3,1.1-0.9,1.2-1.5c1.7-9.8,10.2-17,20.2-17c11.3,0,20.5,9.2,20.5,20.5c0,0.6,0,1.3-0.1,2
			c-0.1,0.6,0.2,1.2,0.6,1.7c0.4,0.4,1.1,0.7,1.7,0.6c0.6-0.1,1.1-0.1,1.6-0.1c8.3,0,15,6.7,15,15S119.4,96.5,111.2,96.5L111.2,96.5
			z M111.2,96.5"/>
	</g>
	<g>
		<path d="M-96.6,8c-19.8,0-35.4,8.2-35.4,18.8v3.2c-4.3,0.3-8.4,1.3-12.2,3c-5.4-1.8-11.9-2.8-18.9-2.8c-19.8,0-35.4,8.2-35.4,18.8
			v33.1c0,10.5,15.5,18.8,35.4,18.8c7.1,0,13.7-1.1,19.2-2.9c4.3,1.9,9.1,2.9,14.1,2.9c5,0,9.7-1,14.1-2.9
			c5.5,1.9,12.1,2.9,19.2,2.9c19.8,0,35.4-8.2,35.4-18.8V26.7C-61.2,16.2-76.7,8-96.6,8L-96.6,8z M-119.1,16.9c6-3,14-4.6,22.6-4.6
			c8.6,0,16.6,1.7,22.6,4.6c5.4,2.7,8.6,6.3,8.6,9.9c0,3.5-3.1,7.1-8.6,9.9c-6,3-14,4.7-22.6,4.7c-2.6,0-5.2-0.2-7.7-0.5
			c-5.8-6-13.7-10-22.5-10.8c-0.6-1.1-0.9-2.2-0.9-3.3C-127.7,23.2-124.6,19.6-119.1,16.9L-119.1,16.9z M-129.8,96.4
			c-2.9,0-5.6-0.4-8.3-1.1c-1.9-0.5-3.8-1.3-5.6-2.1c-2.5-1.2-4.8-2.8-6.8-4.6c-1.3-1.1-2.5-2.4-3.5-3.7c-1.6-2-3-4.1-4-6.5
			c-0.6-1.3-1.1-2.7-1.6-4.1c-0.6-2.1-1.1-4.4-1.2-6.7c-0.1-0.8-0.1-1.5-0.1-2.3c0-0.7,0-1.3,0.1-1.9c0.7-11.3,7.4-21,17-25.8
			c1.8-0.9,3.6-1.6,5.6-2.2c2.1-0.6,4.2-1,6.4-1.1c0.7,0,1.4-0.1,2.1-0.1c0.2,0,0.4,0,0.6,0c0.5,0,1,0,1.5,0.1
			c2.1,0.1,4.2,0.5,6.1,1c3,0.8,5.8,2.1,8.4,3.7c2.5,1.6,4.8,3.6,6.8,5.8c1.9,2.2,3.5,4.6,4.7,7.2c0.7,1.4,1.2,2.9,1.7,4.3
			c0.7,2.2,1.1,4.6,1.2,7c0,0.6,0.1,1.3,0.1,1.9c0,0.8,0,1.5-0.1,2.3c-0.2,2.3-0.6,4.5-1.2,6.7c-0.4,1.4-1,2.8-1.6,4.1
			c-1.1,2.3-2.4,4.5-4,6.5c-1.1,1.3-2.3,2.6-3.5,3.7c-2.1,1.8-4.4,3.4-6.8,4.6c-1.8,0.9-3.6,1.6-5.6,2.1
			C-124.2,96-127,96.4-129.8,96.4L-129.8,96.4z M-185.7,39c6-3,14-4.6,22.6-4.6c4.8,0,9.4,0.5,13.7,1.5c-9,6-15.1,16-15.7,27.5
			c-7.8-0.2-15-1.9-20.5-4.6c-5.4-2.7-8.6-6.3-8.6-9.9C-194.3,45.3-191.1,41.7-185.7,39L-185.7,39z M-165.1,67.6
			c0.1,2.3,0.5,4.6,1.1,6.7c-8.2-0.1-15.9-1.8-21.6-4.6c-5.4-2.7-8.6-6.3-8.6-9.9v-1.9C-188.6,63.4-177.9,67.2-165.1,67.6
			L-165.1,67.6z M-163.1,78.6c0.2,0,0.3,0,0.5,0c1,2.4,2.2,4.7,3.7,6.8c-1.4,0.1-2.7,0.1-4.1,0.1c-8.6,0-16.6-1.7-22.6-4.6
			c-5.4-2.7-8.6-6.3-8.6-9.9v-2.1C-188.3,74.7-176.7,78.6-163.1,78.6L-163.1,78.6z M-163.1,96.4c-8.6,0-16.6-1.7-22.6-4.7
			c-5.4-2.7-8.6-6.3-8.6-9.9V80c5.9,5.8,17.5,9.7,31.2,9.7c2.5,0,5-0.1,7.3-0.4c1.9,2.1,4.1,4,6.5,5.5
			C-153.5,95.9-158.2,96.4-163.1,96.4L-163.1,96.4z M-65.4,81.9c0,3.5-3.1,7.1-8.6,9.9c-6,3-14,4.7-22.6,4.7
			c-4.9,0-9.6-0.5-13.9-1.6c2.4-1.6,4.6-3.4,6.5-5.5c2.4,0.3,4.8,0.4,7.3,0.4c13.6,0,25.2-3.9,31.2-9.7V81.9z M-65.4,71
			c0,3.5-3.1,7.1-8.6,9.9c-6,3-14,4.6-22.6,4.6c-1.4,0-2.8,0-4.1-0.1c1.5-2.1,2.7-4.4,3.7-6.8c0.2,0,0.3,0,0.5,0
			c13.6,0,25.2-3.9,31.2-9.7V71z M-65.4,59.8c0,3.5-3.1,7.1-8.6,9.9c-5.8,2.9-13.4,4.5-21.6,4.6c0.6-2.2,0.9-4.4,1.1-6.7
			c12.7-0.4,23.5-4.1,29.1-9.7V59.8z M-65.4,48.8c0,3.5-3.1,7.1-8.6,9.9c-5.5,2.8-12.7,4.4-20.5,4.6c-0.1-2.4-0.5-4.7-1.1-6.9
			c13.2-0.2,24.4-4,30.2-9.7V48.8z M-65.4,37.7c0,3.5-3.1,7.1-8.6,9.9c-6,3-14,4.7-22.6,4.7c-0.1,0-0.3,0-0.4,0
			c-1-2.4-2.2-4.7-3.6-6.8c1.3,0.1,2.7,0.1,4,0.1c13.6,0,25.2-3.9,31.2-9.7V37.7z M-65.4,37.7"/>
		<path d="M-115.9,74.8c0-1.4-0.3-2.8-0.9-4c-1.6-3.6-5.3-6.4-9.9-7.3c-0.4-0.1-0.7-0.1-1.1-0.2V48.6c4.4,0.7,7.6,3.7,7.6,7.2
			c0,1.2,0.9,2.1,2.1,2.1c1.2,0,2.1-0.9,2.1-2.1c0-0.8-0.1-1.6-0.3-2.4c-1.2-4.7-5.8-8.4-11.6-9.1v-2.8c0-1.2-0.9-2.1-2.1-2.1
			c-0.7,0-1.3,0.3-1.7,0.8c0,0-0.1,0.1-0.1,0.1c-0.2,0.3-0.3,0.7-0.3,1.2v2.8c-0.5,0.1-1,0.2-1.5,0.3c-6,1.3-10.4,5.9-10.4,11.2
			c0,1.4,0.3,2.8,0.9,4c0.6,1.3,1.4,2.5,2.5,3.5c1.3,1.3,3,2.3,4.9,3c1.1,0.4,2.3,0.7,3.6,0.9V82c-0.6-0.1-1.2-0.2-1.7-0.4
			c-1.6-0.5-2.9-1.3-3.9-2.4c-1.2-1.2-1.9-2.8-1.9-4.4c0-0.3-0.1-0.5-0.1-0.8c-0.3-0.8-1.1-1.3-2-1.3c-1.2,0-2.1,0.9-2.1,2.1
			c0,0.3,0,0.6,0,0.8c0.2,2.1,1,4,2.4,5.7c0.9,1.2,2.1,2.2,3.5,3c1.4,0.8,2.9,1.4,4.6,1.8c0.4,0.1,0.9,0.2,1.4,0.2V89
			c0,0.5,0.2,1,0.5,1.4c0.4,0.4,1,0.7,1.6,0.7c0.6,0,1.2-0.3,1.6-0.7c0.3-0.4,0.5-0.9,0.5-1.4v-2.8c0.5-0.1,0.9-0.1,1.4-0.2
			c1.7-0.4,3.2-1,4.6-1.8c1.4-0.8,2.6-1.8,3.5-3c1.3-1.6,2.2-3.6,2.4-5.7C-115.9,75.3-115.9,75-115.9,74.8L-115.9,74.8z
			 M-132.7,62.8c-1.4-0.3-2.6-0.9-3.7-1.6c-1.3-0.9-2.3-2-2.8-3.3c-0.3-0.7-0.4-1.4-0.4-2.2c0-3.5,3.3-6.5,7.6-7.2c0,0,0,0,0,0V63
			C-132.2,62.9-132.5,62.9-132.7,62.8L-132.7,62.8z M-120.1,74.8c0,1.6-0.7,3.2-1.9,4.4c-1,1-2.4,1.8-3.9,2.4
			c-0.6,0.2-1.1,0.3-1.7,0.4h0V67.6c4,0.7,7.1,3.2,7.6,6.3C-120.1,74.2-120.1,74.5-120.1,74.8L-120.1,74.8z M-120.1,74.8"/>
	</g>
	<g>
		<g>
			<defs>
				<rect id="SVGID_1_" x="377.9" y="2.7" width="109.8" height="98"/>
			</defs>
			<clipPath id="SVGID_2_">
				<use xlink:href="#SVGID_1_"  style="overflow:visible;"/>
			</clipPath>
			<path class="st0" d="M411.5,64.4h64.7l11.5-40.9h-16.9l-6.1-18.7L439.6,13l3.5,10.5h-1.2l-6.2-18.7L410.3,13l3.5,10.5h-13.5
				l-2.8-11.2c-1.4-5.6-6.3-9.6-11.9-9.6h-7.7v4.7h7.7c3.5,0,6.5,2.3,7.5,5.9l12.4,48.5c-2.6,1.8-4.2,3.2-4.2,6.6
				c0,5.6,4.7,8.1,10.3,8.1h63.1v-4.7h-63.1c-3,0-5.6-0.4-5.6-3.4C405.9,65.3,408.5,64.4,411.5,64.4L411.5,64.4z M461.8,10.6
				l4.2,12.6h-18.2l-2.6-7.2L461.8,10.6z M432.6,10.6l4.2,12.6h-18.2L416,16L432.6,10.6z M481.6,27.9l-8.9,31.8h-63.1l-8.2-31.8
				H481.6z M481.6,27.9"/>
		</g>
		<path d="M454.1,80.8c-5.4,0-9.8,4.4-9.8,9.8s4.4,9.8,9.8,9.8c5.6,0,9.8-4.4,9.8-9.8S459.4,80.8,454.1,80.8L454.1,80.8z M454.1,96
			c-3,0-5.4-2.6-5.4-5.4c0-3,2.6-5.4,5.4-5.4c3,0,5.4,2.3,5.4,5.4C459.4,93.6,456.9,96,454.1,96L454.1,96z M454.1,96"/>
		<path d="M418.1,80.8c-5.4,0-9.8,4.4-9.8,9.8s4.4,9.8,9.8,9.8c5.4,0,9.8-4.4,9.8-9.8S423.4,80.8,418.1,80.8L418.1,80.8z M418.1,96
			c-3,0-5.4-2.6-5.4-5.4c0-3,2.6-5.4,5.4-5.4s5.4,2.3,5.4,5.4C423.4,93.6,420.9,96,418.1,96L418.1,96z M418.1,96"/>
	</g>
	<g>
		<path class="st1" d="M358.9,59.3c-5.1-18.8-19.2-31.5-31.6-28.2c-4.7,1.2-12.3,4.4-17.6,4.8v-5.3h0c0-0.3,0-0.6,0-0.9
			c0-5.4-4.3-7.8-9.7-7.8h-14.1c-3.4,0-6.2-1.2-6.2-4.6c0-3.4,2.8-4.9,6.2-4.9h20.2c1.9,0,3.5-1.6,3.5-3.5V1.8c0-1-0.8-1.8-1.8-1.8
			c-1,0-1.8,0.8-1.8,1.8v3.6c0,3.5-0.1,3.5-3.5,3.5h-16.7c-5.3,0-9.7,3.1-9.7,8.5c0,5.4,4.3,8.1,9.7,8.1H300c3.4,0,6.2,0.8,6.2,4.3
			c0,0.3,0,0.6,0,0.9h0V36c-5.3-0.4-12.7-3.5-17.4-4.8c-12.2-3.3-26.2,9.4-31.2,28.3c-5,18.9,0.8,37,13,40.2
			c9.1,2.5,19.2-4,25.8-15.3c3.7,0.8,7.5,1.2,11.5,1.2c4.1,0,8-0.7,11.7-1.5c6.7,11.2,16.9,17.7,26.1,15.2
			C358.1,96.1,364,78.2,358.9,59.3L358.9,59.3z M344.8,96c-8.3,2.2-17.6-4.5-23.4-15.8c-1.2,0.3-2.4,0.6-3.6,0.8h0
			c-3.2,0.6-6.5,1.1-9.9,1.1c-3.4,0-6.7-0.3-9.8-0.9l0,0c-1.2-0.2-2.4-0.5-3.5-0.8c-5.8,11.3-15,18.1-23.1,15.9
			c-10.3-2.8-15-18.9-10.5-35.9c4-15.2,14-26,23.5-26.2c4.5,0.4,14.7,5.3,23.5,5.3v0c8.9,0,19.2-4.9,23.8-5.3
			c9.6,0.2,19.7,10.9,23.8,26.1C360.1,77.2,355.3,93.2,344.8,96L344.8,96z M325.5,64.4c-2.9,0-5.3,2.4-5.3,5.3
			c0,2.9,2.4,5.3,5.3,5.3c2.9,0,5.3-2.4,5.3-5.3C330.8,66.8,328.4,64.4,325.5,64.4L325.5,64.4z M325.5,71.5c-1,0-1.8-0.8-1.8-1.8
			c0-1,0.8-1.8,1.8-1.8c1,0,1.8,0.8,1.8,1.8C327.3,70.7,326.5,71.5,325.5,71.5L325.5,71.5z M341.4,67.9c-2.9,0-5.3,2.4-5.3,5.3
			c0,2.9,2.4,5.3,5.3,5.3c2.9,0,5.3-2.4,5.3-5.3C346.7,70.3,344.3,67.9,341.4,67.9L341.4,67.9z M341.4,75c-1,0-1.8-0.8-1.8-1.8
			c0-1,0.8-1.8,1.8-1.8c1,0,1.8,0.8,1.8,1.8C343.1,74.2,342.3,75,341.4,75L341.4,75z M290.3,59.1h-7V52c0-1-0.8-1.8-1.8-1.8
			c-1,0-1.8,0.8-1.8,1.8v7.1h-7c-1,0-1.8,0.8-1.8,1.8c0,1,0.8,1.8,1.8,1.8h7v7.1c0,1,0.8,1.8,1.8,1.8c1,0,1.8-0.8,1.8-1.8v-7.1h7
			c1,0,1.8-0.8,1.8-1.8C292.1,59.9,291.3,59.1,290.3,59.1L290.3,59.1z M341.4,52c-2.9,0-5.3,2.4-5.3,5.3c0,2.9,2.4,5.3,5.3,5.3
			c2.9,0,5.3-2.4,5.3-5.3C346.7,54.4,344.3,52,341.4,52L341.4,52z M341.4,59.1c-1,0-1.8-0.8-1.8-1.8c0-1,0.8-1.8,1.8-1.8
			c1,0,1.8,0.8,1.8,1.8C343.1,58.3,342.3,59.1,341.4,59.1L341.4,59.1z M325.5,48.4c-2.9,0-5.3,2.4-5.3,5.3c0,2.9,2.4,5.3,5.3,5.3
			c2.9,0,5.3-2.4,5.3-5.3C330.8,50.8,328.4,48.4,325.5,48.4L325.5,48.4z M325.5,55.5c-1,0-1.8-0.8-1.8-1.8c0-1,0.8-1.8,1.8-1.8
			c1,0,1.8,0.8,1.8,1.8C327.3,54.7,326.5,55.5,325.5,55.5L325.5,55.5z M325.5,55.5"/>
	</g>
</g>
<g id="Шар_2">
</g>
</svg>
