<?xml version="1.0" encoding="utf-8"?>
<!-- Generator: Adobe Illustrator 21.1.0, SVG Export Plug-In . SVG Version: 6.00 Build 0)  -->
<svg version="1.1" xmlns="http://www.w3.org/2000/svg" xmlns:xlink="http://www.w3.org/1999/xlink" x="0px" y="0px"
	 viewBox="0 0 137.3 100.7" fill="white" stroke="white" style="enable-background:new 0 0 137.3 100.7;" xml:space="preserve">
<style type="text/css">
	.st0{clip-path:url(#SVGID_2_);}
	.st1{fill-rule:evenodd;clip-rule:evenodd;stroke:white;stroke-width:1.1;stroke-miterlimit:10;}
</style>
<g id="Шар_1">
	<g>
		<g>
			<defs>
				<rect id="SVGID_1_" x="377.9" y="2.7" width="109.8" height="98"/>
			</defs>
			<clipPath id="SVGID_2_">
				<use xlink:href="#SVGID_1_"  style="overflow:visible;"/>
			</clipPath>
			<path class="st0" d="M411.5,64.4h64.7l11.5-40.9h-16.9l-6.1-18.7L439.6,13l3.5,10.5h-1.2l-6.2-18.7L410.3,13l3.5,10.5h-13.5
				l-2.8-11.2c-1.4-5.6-6.3-9.6-11.9-9.6h-7.7v4.7h7.7c3.5,0,6.5,2.3,7.5,5.9l12.4,48.5c-2.6,1.8-4.2,3.2-4.2,6.6
				c0,5.6,4.7,8.1,10.3,8.1h63.1v-4.7h-63.1c-3,0-5.6-0.4-5.6-3.4C405.9,65.3,408.5,64.4,411.5,64.4L411.5,64.4z M461.8,10.6
				l4.2,12.6h-18.2l-2.6-7.2L461.8,10.6z M432.6,10.6l4.2,12.6h-18.2L416,16L432.6,10.6z M481.6,27.9l-8.9,31.8h-63.1l-8.2-31.8
				H481.6z M481.6,27.9"/>
		</g>
		<path d="M454.1,80.8c-5.4,0-9.8,4.4-9.8,9.8s4.4,9.8,9.8,9.8c5.6,0,9.8-4.4,9.8-9.8S459.4,80.8,454.1,80.8L454.1,80.8z M454.1,96
			c-3,0-5.4-2.6-5.4-5.4c0-3,2.6-5.4,5.4-5.4c3,0,5.4,2.3,5.4,5.4C459.4,93.6,456.9,96,454.1,96L454.1,96z M454.1,96"/>
		<path d="M418.1,80.8c-5.4,0-9.8,4.4-9.8,9.8s4.4,9.8,9.8,9.8c5.4,0,9.8-4.4,9.8-9.8S423.4,80.8,418.1,80.8L418.1,80.8z M418.1,96
			c-3,0-5.4-2.6-5.4-5.4c0-3,2.6-5.4,5.4-5.4s5.4,2.3,5.4,5.4C423.4,93.6,420.9,96,418.1,96L418.1,96z M418.1,96"/>
	</g>
	<g>
		<path class="st1" d="M106.2,59.3C101.2,40.5,87,27.9,74.6,31.2c-4.7,1.2-12.3,4.4-17.6,4.8v-5.3h0c0-0.3,0-0.6,0-0.9
			c0-5.4-4.3-7.8-9.7-7.8H33.3c-3.4,0-6.2-1.2-6.2-4.6c0-3.4,2.8-4.9,6.2-4.9h20.2c1.9,0,3.5-1.6,3.5-3.5V1.8c0-1-0.8-1.8-1.8-1.8
			c-1,0-1.8,0.8-1.8,1.8v3.6c0,3.5-0.1,3.5-3.5,3.5H33.2c-5.3,0-9.7,3.1-9.7,8.5c0,5.4,4.3,8.1,9.7,8.1h14.1c3.4,0,6.2,0.8,6.2,4.3
			c0,0.3,0,0.6,0,0.9h0V36c-5.3-0.4-12.7-3.5-17.4-4.8C23.9,27.9,9.9,40.6,4.9,59.5c-5,18.9,0.8,37,13,40.2
			c9.1,2.5,19.2-4,25.8-15.3c3.7,0.8,7.5,1.2,11.5,1.2c4.1,0,8-0.7,11.7-1.5c6.7,11.2,16.9,17.7,26.1,15.2
			C105.5,96.1,111.3,78.2,106.2,59.3L106.2,59.3z M92.2,96c-8.3,2.2-17.6-4.5-23.4-15.8c-1.2,0.3-2.4,0.6-3.6,0.8h0
			c-3.2,0.6-6.5,1.1-9.9,1.1c-3.4,0-6.7-0.3-9.8-0.9l0,0c-1.2-0.2-2.4-0.5-3.5-0.8c-5.8,11.3-15,18.1-23.1,15.9
			C8.5,93.5,3.8,77.4,8.3,60.4c4-15.2,14-26,23.5-26.2c4.5,0.4,14.7,5.3,23.5,5.3v0c8.9,0,19.2-4.9,23.8-5.3
			c9.6,0.2,19.7,10.9,23.8,26.1C107.4,77.2,102.6,93.2,92.2,96L92.2,96z M72.9,64.4c-2.9,0-5.3,2.4-5.3,5.3c0,2.9,2.4,5.3,5.3,5.3
			c2.9,0,5.3-2.4,5.3-5.3C78.1,66.8,75.8,64.4,72.9,64.4L72.9,64.4z M72.9,71.5c-1,0-1.8-0.8-1.8-1.8c0-1,0.8-1.8,1.8-1.8
			c1,0,1.8,0.8,1.8,1.8C74.6,70.7,73.8,71.5,72.9,71.5L72.9,71.5z M88.7,67.9c-2.9,0-5.3,2.4-5.3,5.3c0,2.9,2.4,5.3,5.3,5.3
			c2.9,0,5.3-2.4,5.3-5.3C94,70.3,91.6,67.9,88.7,67.9L88.7,67.9z M88.7,75c-1,0-1.8-0.8-1.8-1.8c0-1,0.8-1.8,1.8-1.8
			c1,0,1.8,0.8,1.8,1.8C90.5,74.2,89.7,75,88.7,75L88.7,75z M37.7,59.1h-7V52c0-1-0.8-1.8-1.8-1.8c-1,0-1.8,0.8-1.8,1.8v7.1h-7
			c-1,0-1.8,0.8-1.8,1.8c0,1,0.8,1.8,1.8,1.8h7v7.1c0,1,0.8,1.8,1.8,1.8c1,0,1.8-0.8,1.8-1.8v-7.1h7c1,0,1.8-0.8,1.8-1.8
			C39.4,59.9,38.6,59.1,37.7,59.1L37.7,59.1z M88.7,52c-2.9,0-5.3,2.4-5.3,5.3c0,2.9,2.4,5.3,5.3,5.3c2.9,0,5.3-2.4,5.3-5.3
			C94,54.4,91.6,52,88.7,52L88.7,52z M88.7,59.1c-1,0-1.8-0.8-1.8-1.8c0-1,0.8-1.8,1.8-1.8c1,0,1.8,0.8,1.8,1.8
			C90.5,58.3,89.7,59.1,88.7,59.1L88.7,59.1z M72.9,48.4c-2.9,0-5.3,2.4-5.3,5.3c0,2.9,2.4,5.3,5.3,5.3c2.9,0,5.3-2.4,5.3-5.3
			C78.1,50.8,75.8,48.4,72.9,48.4L72.9,48.4z M72.9,55.5c-1,0-1.8-0.8-1.8-1.8c0-1,0.8-1.8,1.8-1.8c1,0,1.8,0.8,1.8,1.8
			C74.6,54.7,73.8,55.5,72.9,55.5L72.9,55.5z M72.9,55.5"/>
	</g>
</g>
<g id="Шар_2">
</g>
</svg>
