<?xml version="1.0" encoding="utf-8"?>
<!-- Generator: Adobe Illustrator 21.1.0, SVG Export Plug-In . SVG Version: 6.00 Build 0)  -->
<svg version="1.1" id="Шар_2_1_" xmlns="http://www.w3.org/2000/svg" xmlns:xlink="http://www.w3.org/1999/xlink" x="0px"
	 y="0px" viewBox="0 0 137.3 100.7" style="enable-background:new 0 0 137.3 100.7;" xml:space="preserve">
<style type="text/css">
	.st0{fill:#FFFFFF;}
</style>
<path class="st0" d="M102,100.5c-7,0-13.7-1-19.1-2.9c0,0,0,0-0.1,0c0,0-0.1,0-0.1,0c-4.4,1.9-9.1,2.9-14,2.9c-5,0-9.7-1-14-2.9
	c0,0-0.1,0-0.1,0c0,0,0,0-0.1,0c-5.8,1.9-12.4,2.9-19.1,2.9c-19.7,0-35.2-8.2-35.2-18.6V48.8c0-10.3,15.3-18.4,34.8-18.4l0.4,0
	c6.8,0,13.4,1,18.8,2.8c0,0,0,0,0.1,0c0,0,0.1,0,0.1,0c3.8-1.7,7.8-2.7,12.1-3c0.1,0,0.2-0.1,0.2-0.2v-3.2
	c0-10.4,15.5-18.6,35.2-18.6c19.7,0,35.2,8.1,35.3,18.5v55.2C137.2,92.3,121.7,100.5,102,100.5z M94.5,89.2c-0.1,0-0.1,0-0.1,0.1
	c-1.8,2-3.9,3.8-6.5,5.5c-0.1,0-0.1,0.1-0.1,0.2c0,0.1,0.1,0.1,0.1,0.2c4.2,1.1,8.9,1.6,14,1.6c8.5,0,16.6-1.7,22.7-4.7
	c5.5-2.8,8.7-6.5,8.7-10.1l-0.1-1.8c0-0.1-0.1-0.1-0.1-0.2c0,0,0,0-0.1,0c-0.1,0-0.1,0-0.1,0.1c-6.2,5.9-18.1,9.6-31.1,9.6
	C99,89.6,96.7,89.5,94.5,89.2C94.5,89.2,94.5,89.2,94.5,89.2z M68.8,34c-0.4,0-0.7,0-1.1,0.1c-0.3,0-0.7,0-1,0
	c-2.1,0.1-4.2,0.5-6.5,1.1c-2.1,0.6-3.8,1.3-5.6,2.2c-9.9,4.9-16.4,14.9-17.1,26c-0.1,0.6-0.1,1.2-0.1,1.9c0,0.8,0,1.5,0.1,2.3
	c0.1,2,0.5,4.2,1.2,6.7c0.5,1.4,1,2.8,1.6,4.1c0.9,2.1,2.2,4.2,4,6.5c1.1,1.4,2.3,2.7,3.5,3.7c2.1,1.9,4.4,3.5,6.8,4.6
	c1.8,0.8,3.7,1.6,5.6,2.1c2.9,0.7,5.6,1.1,8.4,1.1c2.8,0,5.6-0.4,8.5-1.2c1.9-0.5,3.7-1.2,5.6-2.1c2.3-1.1,4.6-2.7,6.8-4.6
	c1.1-1,2.3-2.3,3.5-3.7c1.5-1.9,2.8-4,4-6.5c0.6-1.2,1.2-2.7,1.6-4.1c0.6-2.2,1-4.5,1.2-6.7c0.1-0.8,0.1-1.5,0.1-2.3
	c0-0.3,0-0.6-0.1-1c0-0.3,0-0.6,0-0.9c-0.1-2.5-0.5-4.9-1.2-7.1l-0.2-0.6c-0.4-1.2-0.9-2.5-1.5-3.8c-1.2-2.5-2.8-5-4.7-7.2
	c-2.1-2.3-4.4-4.3-6.8-5.8c-2.8-1.7-5.6-3-8.5-3.7c-2.2-0.6-4.3-0.9-6.1-1c-0.5-0.1-1-0.1-1.5-0.1H68.8z M4.2,79.8
	C4.2,79.8,4.1,79.8,4.2,79.8C4,79.8,4,79.9,4,80v1.8c0,3.6,3.2,7.3,8.7,10.1c6.1,3,14.1,4.7,22.7,4.7c5.1,0,9.8-0.5,13.9-1.6
	c0.1,0,0.1-0.1,0.1-0.2s0-0.2-0.1-0.2c-2.3-1.4-4.5-3.3-6.5-5.5c0,0-0.1-0.1-0.1-0.1c0,0,0,0,0,0c-2.1,0.3-4.4,0.4-7.3,0.4
	c-13.1,0-25-3.7-31.1-9.6C4.3,79.8,4.3,79.8,4.2,79.8z M101.5,78.4c-0.1,0-0.2,0-0.2,0.1c-1.1,2.6-2.3,4.8-3.7,6.8
	c0,0.1,0,0.1,0,0.2c0,0.1,0.1,0.1,0.2,0.1c1.3,0.1,2.7,0.1,4.1,0.1c8.7,0,16.7-1.6,22.7-4.6c5.4-2.8,8.6-6.4,8.7-9.9
	c0.1,0,0.1-0.1,0.1-0.2v-2.1c0-0.1,0-0.2-0.1-0.2c0,0-0.1,0-0.1,0c-0.1,0-0.1,0-0.1,0.1c-6.2,5.9-18.1,9.6-31.1,9.6H101.5z
	 M4.3,68.7C4.3,68.7,4.2,68.7,4.3,68.7c-0.2,0-0.2,0.1-0.2,0.2V71c0,3.6,3.2,7.3,8.7,10.1c6.2,3,14.2,4.6,22.7,4.6
	c1.4,0,2.7,0,4.1-0.1c0.1,0,0.1,0,0.2-0.1s0-0.1,0-0.2c-1.4-1.9-2.6-4.2-3.7-6.8c0-0.1-0.1-0.1-0.2-0.1h-0.5c-13,0-24.9-3.7-31-9.6
	C4.4,68.7,4.4,68.7,4.3,68.7z M133.1,57.7c-0.1,0-0.1,0-0.1,0.1c-5.6,5.6-16.5,9.2-29,9.6c-0.1,0-0.2,0.1-0.2,0.2
	c-0.2,2.7-0.6,4.8-1.1,6.7c0,0.1,0,0.1,0,0.2c0,0,0.1,0.1,0.2,0.1c0,0,0,0,0,0c8.2-0.1,15.9-1.7,21.7-4.6c5.5-2.8,8.7-6.5,8.7-10.1
	v-1.9C133.3,57.8,133.3,57.7,133.1,57.7C133.2,57.7,133.1,57.7,133.1,57.7z M4.3,57.7C4.3,57.7,4.2,57.7,4.3,57.7
	c-0.2,0-0.2,0.1-0.2,0.2v1.9c0,3.6,3.2,7.3,8.7,10.1c5.9,2.9,13.6,4.5,21.7,4.6c0,0,0,0,0,0c0.1,0,0.1,0,0.2-0.1s0.1-0.1,0-0.2
	c-0.6-2.2-1-4.5-1.1-6.7c0-0.1-0.1-0.2-0.2-0.2c-12.4-0.4-23.2-4-29-9.6C4.4,57.7,4.4,57.7,4.3,57.7z M35.4,34.2
	c-8.7,0-16.7,1.6-22.7,4.6C7.1,41.6,4,45.3,4.1,48.9c0,3.6,3.2,7.3,8.7,10.1c5.7,2.8,13,4.4,20.6,4.6c0,0,0,0,0,0
	c0.1,0,0.2-0.1,0.2-0.2c0.6-11,6.4-21.2,15.6-27.3c0.1,0,0.1-0.1,0.1-0.2s-0.1-0.1-0.2-0.2C44.9,34.7,40.2,34.2,35.4,34.2z
	 M133.1,46.5c-0.1,0-0.1,0-0.1,0.1c-5.9,5.8-17.2,9.4-30.1,9.6c-0.1,0-0.1,0-0.2,0.1s0,0.1,0,0.2c0.6,2.3,1,4.6,1.1,6.9
	c0,0.1,0.1,0.2,0.2,0.2c0,0,0,0,0,0c7.8-0.2,15.1-1.8,20.6-4.6c5.5-2.8,8.7-6.5,8.7-10.1v-2.1C133.3,46.6,133.3,46.5,133.1,46.5
	C133.2,46.5,133.1,46.5,133.1,46.5z M97.9,45.3c-0.1,0-0.1,0-0.2,0.1c0,0.1,0,0.1,0,0.2c1.3,2,2.6,4.3,3.6,6.8
	c0,0.1,0.1,0.1,0.2,0.1h0.4c8.5,0,16.6-1.7,22.7-4.7c5.5-2.8,8.7-6.5,8.7-10.1v-1.8c0-0.1,0-0.2-0.1-0.2c0,0-0.1,0-0.1,0
	c-0.1,0-0.1,0-0.1,0.1c-6.2,5.9-18.1,9.6-31.1,9.6C100.6,45.4,99.2,45.4,97.9,45.3C97.9,45.3,97.9,45.3,97.9,45.3z M102,12.1
	c-8.7,0-16.7,1.6-22.7,4.6c-5.6,2.7-8.7,6.4-8.6,10.1c0,1.1,0.3,2.3,0.9,3.4c0,0.1,0.1,0.1,0.2,0.1c8.5,0.8,16.4,4.6,22.4,10.7
	c0,0,0.1,0.1,0.1,0.1c2.8,0.3,5.3,0.5,7.7,0.5c8.5,0,16.6-1.7,22.7-4.7c5.5-2.8,8.7-6.5,8.7-10.1c0-3.6-3.2-7.3-8.7-10.1
	C118.5,13.7,110.5,12.1,102,12.1z"/>
<path class="st0" d="M68.7,90.9c-0.5,0-1.1-0.2-1.5-0.6c-0.3-0.4-0.4-0.8-0.4-1.3v-2.7c0-0.1-0.1-0.2-0.2-0.2
	c-0.4,0-0.8-0.1-1.4-0.2c-1.6-0.4-3.1-1-4.5-1.8c-1.4-0.8-2.6-1.8-3.4-2.9c-1.4-1.7-2.2-3.5-2.4-5.6l0-0.8c0-1.1,0.8-1.9,1.9-1.9
	c0.8,0,1.5,0.5,1.8,1.2c0,0.1,0,0.2,0,0.4c0,0.1,0,0.2,0,0.4c0,1.6,0.7,3.3,2,4.5c1,1.1,2.4,1.9,4,2.4c0.5,0.2,1.1,0.3,1.7,0.4
	c0,0,0,0,0,0c0,0,0.1,0,0.1,0c0,0,0.1-0.1,0.1-0.2V67.2c0-0.1-0.1-0.2-0.2-0.2c-1.3-0.2-2.5-0.5-3.6-0.9c-2-0.7-3.6-1.7-4.8-3
	c-1-0.9-1.8-2-2.5-3.4c-0.6-1.2-0.9-2.5-0.9-3.9c0-5.2,4.2-9.7,10.2-11l1.5-0.3c0.1,0,0.2-0.1,0.2-0.2v-2.8c0-0.5,0.1-0.8,0.3-1.1
	l0.1-0.1c0.4-0.5,0.9-0.7,1.6-0.7c1.1,0,1.9,0.8,1.9,1.9v2.8c0,0.1,0.1,0.2,0.2,0.2c5.6,0.7,10.2,4.3,11.4,9
	c0.2,0.8,0.3,1.6,0.3,2.3c0,1.1-0.8,1.9-1.9,1.9c-1.1,0-1.9-0.8-1.9-1.9c0-3.6-3.3-6.7-7.8-7.4c0,0,0,0,0,0c0,0-0.1,0-0.1,0
	c0,0-0.1,0.1-0.1,0.2v14.7c0,0.1,0.1,0.2,0.2,0.2c0.2,0.1,0.4,0.1,0.6,0.1c0.2,0,0.3,0,0.5,0.1c4.5,0.9,8.2,3.6,9.8,7.2
	c0.6,1.2,0.9,2.5,0.9,3.9c0,0.2,0,0.5,0.1,0.7c-0.2,1.9-1,3.9-2.4,5.5c-0.9,1.1-2,2.1-3.4,3c-1.4,0.8-2.9,1.4-4.5,1.8
	c-0.2,0-0.5,0.1-0.7,0.1c-0.2,0-0.5,0.1-0.7,0.1c-0.1,0-0.2,0.1-0.2,0.2V89c0,0.4-0.2,0.9-0.5,1.3C69.8,90.7,69.2,90.9,68.7,90.9z
	 M70.9,67.4c0,0-0.1,0-0.1,0c0,0-0.1,0.1-0.1,0.2V82c0,0.1,0,0.1,0.1,0.2c0,0,0.1,0,0.1,0c0,0,0,0,0,0c0.6-0.1,1.1-0.2,1.7-0.4
	c1.7-0.7,3-1.5,4-2.4c1.2-1.2,2-2.9,2-4.5c0-0.3,0-0.6,0.1-0.8C78.2,70.7,75.1,68.1,70.9,67.4C70.9,67.4,70.9,67.4,70.9,67.4z
	 M66.5,48.3c-4.5,0.7-7.8,3.8-7.8,7.4c0,0.9,0.1,1.6,0.4,2.3c0.5,1.3,1.5,2.4,2.9,3.4c1.3,0.8,2.5,1.4,3.8,1.6
	c0.1,0,0.2,0.1,0.4,0.1c0.1,0,0.2,0,0.3,0.1c0,0,0.1,0,0.1,0c0,0,0.1,0,0.1,0c0.1,0,0.1-0.1,0.1-0.2V48.5c0-0.1,0-0.1-0.1-0.2
	C66.6,48.3,66.5,48.3,66.5,48.3C66.5,48.3,66.5,48.3,66.5,48.3z"/>
</svg>
