<?xml version="1.0" encoding="utf-8"?>
<!-- Generator: Adobe Illustrator 21.1.0, SVG Export Plug-In . SVG Version: 6.00 Build 0)  -->
<svg version="1.1" xmlns="http://www.w3.org/2000/svg" xmlns:xlink="http://www.w3.org/1999/xlink" x="0px" y="0px"
	 viewBox="0 0 137.3 100.7" fill="white" style="enable-background:new 0 0 137.3 100.7;" xml:space="preserve">
<style type="text/css">
	.st0{clip-path:url(#SVGID_2_);}
</style>
<g id="Шар_1">
	<g>
		<g>
			<defs>
				<rect id="SVGID_1_" y="2.3" width="109.8" height="98"/>
			</defs>
			<clipPath id="SVGID_2_">
				<use xlink:href="#SVGID_1_"  style="overflow:visible;"/>
			</clipPath>
			<path class="st0" d="M33.6,64h64.7l11.5-40.9H93L86.9,4.4l-25.2,8.2l3.5,10.5H64L57.7,4.4l-25.2,8.2l3.5,10.5H22.4l-2.8-11.2
				c-1.4-5.6-6.3-9.6-11.9-9.6H0V7h7.7c3.5,0,6.5,2.3,7.5,5.9l12.4,48.5c-2.6,1.8-4.2,3.2-4.2,6.6c0,5.6,4.7,8.1,10.3,8.1h63.1v-4.7
				H33.6c-3,0-5.6-0.4-5.6-3.4C28,64.9,30.6,64,33.6,64L33.6,64z M83.9,10.3l4.2,12.6H69.9l-2.6-7.2L83.9,10.3z M54.7,10.3l4.2,12.6
				H40.7l-2.6-7.2L54.7,10.3z M103.8,27.6l-8.9,31.8H31.8l-8.2-31.8H103.8z M103.8,27.6"/>
		</g>
		<path d="M76.2,80.4c-5.4,0-9.8,4.4-9.8,9.8c0,5.4,4.4,9.8,9.8,9.8c5.6,0,9.8-4.4,9.8-9.8C86,84.9,81.6,80.4,76.2,80.4L76.2,80.4z
			 M76.2,95.6c-3,0-5.4-2.6-5.4-5.4c0-3,2.6-5.4,5.4-5.4c3,0,5.4,2.3,5.4,5.4C81.6,93.3,79,95.6,76.2,95.6L76.2,95.6z M76.2,95.6"/>
		<path d="M40.2,80.4c-5.4,0-9.8,4.4-9.8,9.8c0,5.4,4.4,9.8,9.8,9.8c5.4,0,9.8-4.4,9.8-9.8C50,84.9,45.6,80.4,40.2,80.4L40.2,80.4z
			 M40.2,95.6c-3,0-5.4-2.6-5.4-5.4c0-3,2.6-5.4,5.4-5.4c2.8,0,5.4,2.3,5.4,5.4C45.6,93.3,43,95.6,40.2,95.6L40.2,95.6z M40.2,95.6"
			/>
	</g>
</g>
<g id="Шар_2">
</g>
</svg>
